# xmcd
#
# Track frame offsets:
#	150
#	19269
#	41461
#	63001
#	84287
#	108720
#	126256
#	146634
#	165289
#	184932
#	202939
#	221127
#	237344
#	255988
#	278343
#	298389
#	317623
#	335456
#
# Disc length: 4721 seconds
#
# Revision: 1
# Processed by: cddbd v1.5.2PL0 Copyright (c) Steve Scherf et al.
# Submitted via: EasyCDDAExtractor 15.3.0.1
#
DISCID=02126f12
DTITLE=Monica Naranjo - Coleccion Privada - CD 1 - Grandes Exitos
DYEAR=2005
DGENRE=Latin
TTITLE0=Enamorada De Ti
TTITLE1=Sobrevivire
TTITLE2=Desatame
TTITLE3=Pantera En Libertad
TTITLE4=Entender El Amor
TTITLE5=Chicas Malas
TTITLE6=Tu Y Yo Volvemos Al Amor
TTITLE7=Empiezo A Recordarte
TTITLE8=Enamorada
TTITLE9=No Voy A Llorar
TTITLE10=El Amor Coloca
TTITLE11=Seguire Sin Ti
TTITLE12=Las Campanas Del Amor
TTITLE13=Amame O Dejame
TTITLE14=No Puedo Seguir
TTITLE15=Sacrificio
TTITLE16=Supernatural
TTITLE17=Sola
EXTD=
EXTT0=
EXTT1=
EXTT2=
EXTT3=
EXTT4=
EXTT5=
EXTT6=
EXTT7=
EXTT8=
EXTT9=
EXTT10=
EXTT11=
EXTT12=
EXTT13=
EXTT14=
EXTT15=
EXTT16=
EXTT17=
PLAYORDER=
